<svg version="1.1" id="Layer_1" xmlns="http://www.w3.org/2000/svg" xmlns:xlink="http://www.w3.org/1999/xlink" x="0px" y="0px"
	 width="100%" viewBox="0 0 400 320" enable-background="new 0 0 400 320" xml:space="preserve">
<path fill="#0000" opacity="1.000000" stroke="none" 
	d="
M204.210266,167.862030 
	C217.916367,168.008118 214.435593,166.528534 218.112823,178.674850 
	C218.930054,181.374207 219.383530,184.185013 220.226700,186.874863 
	C221.569504,191.158554 227.096664,193.502731 231.062866,191.348785 
	C235.596024,188.886978 240.049484,186.253922 244.378128,183.449173 
	C246.976974,181.765244 248.754700,182.198730 250.909882,184.265671 
	C259.983185,192.967468 260.036926,192.913284 253.692368,203.612946 
	C252.588379,205.474762 251.446167,207.314285 250.363510,209.188293 
	C247.503464,214.138916 249.607864,219.659546 255.186859,221.316788 
	C259.643829,222.640717 264.177887,223.746506 268.731293,224.690689 
	C272.089478,225.387024 273.413849,227.093643 273.308899,230.560394 
	C272.872253,244.981216 275.434784,241.761353 261.920074,245.511032 
	C257.413757,246.761337 251.627716,246.143112 249.682739,252.463425 
	C248.934814,254.893906 248.753098,256.858124 250.120728,259.053497 
	C252.673584,263.151520 254.958420,267.418701 257.569031,271.477692 
	C259.154236,273.942383 259.312866,275.774261 256.973724,277.956635 
	C245.954865,288.237030 250.270447,288.243652 237.128098,280.629333 
	C233.263000,278.390015 229.709610,274.573700 224.379349,277.266632 
	C222.169205,278.383240 220.586639,279.575623 220.025146,282.216248 
	C218.989120,287.088379 217.434921,291.849854 216.385086,296.719666 
	C215.822174,299.330811 214.556580,300.495728 211.958511,300.322693 
	C211.792862,300.311646 211.625412,300.331146 211.459000,300.327423 
	C195.503769,299.972565 199.728668,302.765320 195.561188,288.366638 
	C194.392075,284.327301 195.114868,279.117340 189.531433,277.208160 
	C186.821716,276.281616 184.459152,275.989471 181.941666,277.571411 
	C178.136032,279.962769 174.250458,282.227112 170.392609,284.535004 
	C169.535736,285.047607 168.639175,285.960754 167.784241,285.934296 
	C162.010147,285.755646 160.329391,280.070129 156.474396,277.263306 
	C154.124512,275.552307 155.042435,273.556213 156.264587,271.577362 
	C158.713959,267.611420 161.162766,263.643188 163.509171,259.616089 
	C166.730789,254.086823 164.432755,248.728836 158.141449,247.052994 
	C153.642090,245.854492 149.133163,244.680191 144.593567,243.648956 
	C141.924927,243.042725 140.637009,241.737473 140.684067,238.848221 
	C140.947922,222.648529 138.431213,227.053040 153.084427,222.708008 
	C157.212997,221.483795 162.260437,221.979935 164.100494,216.461655 
	C164.949112,213.916718 165.161697,211.700836 163.697937,209.335648 
	C161.069656,205.088821 158.627823,200.726715 156.006302,196.475555 
	C154.664154,194.299072 154.927902,192.714203 156.702026,190.765900 
	C165.327896,181.293198 165.271545,181.236343 176.424896,187.637360 
	C178.013077,188.548813 179.577774,189.502106 181.139252,190.459015 
	C187.072525,194.095139 192.466553,191.905853 194.323334,185.070145 
	C195.412399,181.060776 196.802917,177.087952 197.398056,173.002594 
	C197.984726,168.975388 199.929825,167.480469 204.210266,167.862030 
M219.391296,228.309784 
	C214.568237,220.656296 207.406891,218.362625 200.372650,222.218445 
	C194.281784,225.557129 191.541000,233.199799 194.245102,239.305099 
	C197.448486,246.537704 204.693939,249.691483 211.939102,247.006897 
	C219.010635,244.386658 222.200104,236.996933 219.391296,228.309784 
M178.425964,244.420837 
	C178.778122,243.871094 179.488602,243.277435 179.427414,242.778351 
	C178.761505,237.345779 178.241699,231.950150 179.462173,226.497864 
	C179.774063,225.104477 178.598221,223.978561 177.165710,223.666779 
	C175.614471,223.329163 174.637039,224.219162 174.157379,225.632645 
	C172.235428,231.296387 172.071014,237.002655 174.054199,242.668365 
	C174.627197,244.305313 175.719635,245.636063 178.425964,244.420837 
M199.951355,261.866913 
	C198.104187,261.847351 196.521561,262.403534 196.494476,264.509613 
	C196.469086,266.482635 197.980728,267.220856 199.725449,267.667145 
	C204.637299,268.923553 209.527039,269.039612 214.398651,267.545685 
	C216.021912,267.047882 217.724594,266.321564 217.436615,264.248718 
	C217.137817,262.097778 215.287048,262.010712 213.580627,262.110413 
	C209.288742,262.361145 205.000931,262.588654 199.951355,261.866913 
M235.360916,244.046204 
	C237.311066,245.290833 239.042160,244.865189 239.805267,242.799545 
	C241.930634,237.046204 242.025726,231.209366 239.649200,225.471649 
	C239.108398,224.165970 238.009506,223.298599 236.482559,223.815048 
	C235.088821,224.286407 234.130112,225.538605 234.514343,226.883789 
	C236.094727,232.416489 234.685471,237.962250 235.360916,244.046204 
M212.533493,206.605698 
	C214.611206,206.622894 217.235641,207.372940 217.527298,204.186630 
	C217.775558,201.474365 215.322495,201.154099 213.442978,200.802597 
	C209.033005,199.977798 204.579315,199.986191 200.169220,200.879044 
	C198.194992,201.278732 195.954056,201.822266 196.561447,204.553116 
	C197.158447,207.237106 199.534378,206.892975 201.430496,206.496353 
	C204.879089,205.774979 208.267502,205.375778 212.533493,206.605698 
M232.493774,256.957825 
	C233.563721,255.483917 234.756104,254.081451 235.669510,252.516190 
	C236.601318,250.919388 237.473114,249.026810 235.269653,247.748505 
	C233.461456,246.699493 232.162033,247.811920 231.096588,249.282684 
	C228.545715,252.803986 225.547897,255.878616 221.963776,258.370850 
	C220.242752,259.567596 219.483246,261.220795 220.735153,263.065491 
	C221.988617,264.912567 223.636505,264.078186 225.116455,263.173492 
	C227.682083,261.605072 229.966217,259.690216 232.493774,256.957825 
M190.091400,211.503113 
	C190.500458,211.223587 190.913406,210.949554 191.317917,210.663605 
	C193.033646,209.450775 194.680298,207.960495 193.225906,205.790604 
	C191.712997,203.533371 189.756943,204.770157 188.030792,205.862259 
	C183.906052,208.471893 180.594009,211.875824 178.173996,216.114624 
	C177.191254,217.835953 176.851700,219.646835 178.842255,220.896973 
	C180.789261,222.119766 181.920029,220.610291 182.886093,219.263824 
	C184.821457,216.566391 186.908127,214.023041 190.091400,211.503113 
M234.099106,213.426254 
	C231.500168,210.155472 228.493225,207.335663 224.876266,205.216324 
	C223.507401,204.414261 221.953568,203.974686 220.852051,205.472672 
	C219.693130,207.048706 220.061783,208.801575 221.650681,209.820038 
	C225.784241,212.469589 228.938232,215.999146 231.697144,219.991989 
	C232.447525,221.077957 233.670334,221.888611 235.129333,220.930786 
	C236.375580,220.112671 236.909470,218.898911 236.363464,217.495819 
	C235.888611,216.275558 235.146454,215.159332 234.099106,213.426254 
M189.791550,256.783691 
	C186.767975,254.627472 184.704910,251.609039 182.483932,248.721024 
	C181.479874,247.415405 180.072769,246.828979 178.558777,247.798920 
	C177.025162,248.781479 177.012009,250.391739 177.788651,251.769897 
	C180.615173,256.785797 184.659576,260.648926 189.585281,263.587158 
	C190.855927,264.345123 192.150360,264.306335 193.122879,263.021667 
	C194.033585,261.818634 194.028519,260.469513 193.073364,259.367645 
	C192.331619,258.511932 191.278366,257.926270 189.791550,256.783691 
z"/>
<path fill="#000000" opacity="1.000000" stroke="none" 
	d="
M68.692139,92.999756 
	C68.686378,75.346352 68.663033,58.192913 68.683006,41.039516 
	C68.693245,32.241573 71.234177,29.682314 79.886978,29.679497 
	C111.529221,29.669197 143.171463,29.665154 174.813705,29.676567 
	C183.303635,29.679628 186.003540,32.187565 186.030518,40.561089 
	C186.102966,63.043423 185.969513,85.526611 186.100769,108.008400 
	C186.126923,112.490173 184.592056,114.184601 180.008041,114.166199 
	C144.869049,114.025154 109.729134,114.008041 74.590019,114.117744 
	C70.011719,114.132027 68.325203,112.555779 68.630035,107.983482 
	C68.950562,103.175545 68.695839,98.329254 68.692139,92.999756 
M77.605591,50.240490 
	C77.696114,52.568970 77.876968,54.898022 77.862244,57.225834 
	C77.778008,70.546997 78.133835,83.867355 77.501579,97.191093 
	C77.199951,103.547256 78.493866,104.798347 83.853317,104.803780 
	C112.839355,104.833183 141.825790,104.734451 170.811188,104.870331 
	C175.424515,104.891953 176.907730,103.207100 176.863617,98.707619 
	C176.692108,81.217728 176.810379,63.725105 176.794312,46.233524 
	C176.787491,38.803795 176.365082,38.393368 168.794052,38.391415 
	C141.806992,38.384441 114.819939,38.390263 87.832878,38.404533 
	C78.085754,38.409687 77.837471,38.664745 77.467949,48.374599 
	C77.455322,48.706253 77.496315,49.039948 77.605591,50.240490 
z"/>
<path fill="#000000" opacity="1.000000" stroke="none" 
	d="
M227.973038,59.000065 
	C227.982849,52.169083 227.844849,45.833462 228.041901,39.508286 
	C228.269592,32.200237 230.970612,29.685896 238.215912,29.682081 
	C270.371368,29.665146 302.526855,29.664204 334.682312,29.680584 
	C342.480042,29.684555 345.286041,32.383369 345.301056,40.097340 
	C345.345459,62.922619 345.230774,85.748558 345.376770,108.572968 
	C345.403168,112.698486 344.003265,114.141739 339.906250,114.131119 
	C304.418884,114.039154 268.931091,114.045998 233.443726,114.139503 
	C229.305252,114.150406 227.899734,112.510277 227.931015,108.482315 
	C228.057770,92.155769 227.977341,75.827606 227.973038,59.000065 
M237.165848,82.499779 
	C237.175613,87.995049 237.352325,93.496727 237.142044,98.983559 
	C236.975266,103.334923 238.822189,104.860710 243.056244,104.847893 
	C272.197815,104.759659 301.339966,104.752075 330.481384,104.865334 
	C335.104553,104.883293 336.657776,102.831482 336.639587,98.519455 
	C336.563843,80.535088 336.569733,62.550091 336.632782,44.565632 
	C336.648285,40.146935 334.751801,38.328049 330.277740,38.343769 
	C301.302734,38.445599 272.327026,38.460857 243.352112,38.354816 
	C238.845001,38.338318 237.090729,40.020168 237.146347,44.532204 
	C237.298218,56.852978 237.178101,69.177109 237.165848,82.499779 
z"/>
<path fill="#000000" opacity="1.000000" stroke="none" 
	d="
M111.999985,119.705437 
	C136.957047,119.700096 161.414185,119.664742 185.871017,119.734436 
	C188.423187,119.741707 191.976776,118.545128 192.158859,123.178001 
	C192.316772,127.196472 190.190933,129.354202 185.546631,129.357849 
	C146.781479,129.388214 108.016273,129.359665 69.251091,129.339310 
	C68.422897,129.338867 67.560333,129.352234 66.772713,129.140259 
	C63.717007,128.317886 62.661324,126.150398 62.704647,123.127151 
	C62.755085,119.607025 65.204147,119.747009 67.577400,119.743324 
	C82.218246,119.720566 96.859108,119.716087 111.999985,119.705437 
z"/>
<path fill="#000000" opacity="1.000000" stroke="none" 
	d="
M261.999878,129.396057 
	C251.016251,129.393463 240.532623,129.401688 230.049088,129.373703 
	C228.558929,129.369736 226.991745,129.451569 225.595169,129.037933 
	C222.516632,128.126129 221.796234,125.549164 221.882721,122.713196 
	C221.980423,119.509727 224.455505,119.726158 226.607727,119.725220 
	C266.545227,119.707863 306.482697,119.708260 346.420197,119.721825 
	C348.772797,119.722626 351.242218,119.563599 351.302795,123.099640 
	C351.358337,126.341339 350.324677,128.698914 346.858917,129.218292 
	C345.226349,129.462952 343.538574,129.376114 341.875763,129.376877 
	C315.417145,129.389008 288.958496,129.391006 261.999878,129.396057 
z"/>
<path fill="#000000" opacity="1.000000" stroke="none" 
	d="
M258.685455,175.595581 
	C256.239960,179.479156 253.824753,180.504913 250.946487,176.480484 
	C248.280350,172.752655 245.605652,177.387650 242.664795,176.528442 
	C242.308090,174.016388 244.162796,172.642227 245.486313,171.076904 
	C253.982620,161.028381 262.716705,151.171555 270.931793,140.899155 
	C274.292999,136.696198 277.741943,134.494980 283.182434,135.486282 
	C285.566010,135.920578 288.094574,135.559341 292.289032,135.559341 
	C280.526520,149.569016 269.714325,162.446838 258.685455,175.595581 
z"/>
<path fill="#000000" opacity="1.000000" stroke="none" 
	d="
M146.202316,164.772705 
	C138.346481,155.371078 130.716980,146.244446 122.961388,136.966995 
	C131.368835,133.563705 138.048157,135.116760 143.146683,141.164719 
	C151.711472,151.324417 160.341461,161.429214 168.879379,171.611298 
	C170.069183,173.030228 171.939682,174.271698 171.113708,177.569519 
	C166.267105,172.805618 162.858139,176.073425 159.336288,180.063278 
	C154.800140,174.786331 150.614395,169.917023 146.202316,164.772705 
z"/>
<path fill="#000000" opacity="1.000000" stroke="none" 
	d="
M303.786804,278.301880 
	C300.282379,284.258484 295.435760,285.894409 290.857483,283.005646 
	C286.554077,280.290344 285.342407,274.375519 288.451752,270.367065 
	C291.060242,267.004272 294.550415,265.731781 298.611633,267.420135 
	C303.273895,269.358368 304.921844,273.016479 303.786804,278.301880 
z"/>
<path fill="#000000" opacity="1.000000" stroke="none" 
	d="
M112.759430,239.703308 
	C109.244034,243.385803 105.415474,244.302811 101.351166,241.779785 
	C98.025810,239.715485 96.287170,236.536041 97.300659,232.485168 
	C98.159996,229.050446 100.202057,226.488770 103.860092,225.816681 
	C107.309593,225.182907 110.588905,225.836060 112.773186,228.796371 
	C115.263893,232.172028 115.435349,235.811035 112.759430,239.703308 
z"/>
<path fill="#000000" opacity="1.000000" stroke="none" 
	d="
M301.582520,228.526123 
	C305.177185,225.085358 308.972473,224.720261 312.809601,226.936020 
	C315.935791,228.741257 317.410248,231.882614 316.883881,235.393326 
	C316.297516,239.304199 313.835846,241.981979 309.829010,242.878265 
	C306.177032,243.695175 303.250977,242.303192 301.125366,239.412003 
	C298.549286,235.908127 298.789917,232.306259 301.582520,228.526123 
z"/>
<path fill="#000000" opacity="1.000000" stroke="none" 
	d="
M114.961533,283.490021 
	C110.606331,281.084778 108.897018,277.632507 110.085060,273.275421 
	C111.134460,269.426727 114.023247,267.082397 118.063499,266.786255 
	C122.178917,266.484650 125.058441,268.606720 126.659668,272.324524 
	C128.034424,275.516510 127.490150,278.644806 125.255867,281.192108 
	C122.612350,284.205933 119.212570,285.149231 114.961533,283.490021 
z"/>
<path fill="#000000" opacity="1.000000" stroke="none" 
	d="
M123.867142,199.928421 
	C119.283180,202.519485 115.249809,202.415161 111.875305,198.605713 
	C109.140739,195.518661 108.903702,191.959702 111.057419,188.478088 
	C113.342140,184.784683 116.855881,183.649689 120.988884,184.648453 
	C127.601601,186.246460 129.131561,193.611496 123.867142,199.928421 
z"/>
<path fill="#000000" opacity="1.000000" stroke="none" 
	d="
M286.749451,193.804733 
	C286.843903,188.930176 288.882751,185.786087 293.284088,184.630264 
	C297.192261,183.603958 300.505310,184.810287 302.794891,188.207428 
	C304.983307,191.454498 304.681824,194.808792 302.608459,197.970978 
	C300.564484,201.088318 297.434509,201.932693 293.929565,201.445648 
	C289.759827,200.866226 287.733765,198.040375 286.749451,193.804733 
z"/>
<path fill="#000000" opacity="1.000000" stroke="none" 
	d="
M265.302734,269.400940 
	C267.949463,269.113159 270.254303,268.927887 272.560211,268.913757 
	C280.902771,268.862671 280.654236,268.898651 281.117401,276.959747 
	C281.352844,281.057587 279.858887,282.407837 276.109497,282.102448 
	C271.943329,281.763153 267.643677,282.891418 262.272980,280.781403 
	C268.785614,277.726715 264.629181,273.390259 265.302734,269.400940 
z"/>
<path fill="#000000" opacity="1.000000" stroke="none" 
	d="
M132.838120,272.263184 
	C132.798630,270.188599 133.713165,269.287933 135.196152,269.166443 
	C139.917847,268.779724 144.642532,268.613892 149.888260,269.417603 
	C148.277679,273.719360 145.823776,277.698914 151.296768,281.189941 
	C145.227249,282.277771 139.911453,282.433746 134.580200,281.764465 
	C132.913864,281.555267 132.793594,280.072479 132.816666,278.671844 
	C132.849274,276.689819 132.842743,274.707153 132.838120,272.263184 
z"/>
<path fill="#000000" opacity="1.000000" stroke="none" 
	d="
M273.962616,186.662018 
	C276.612213,187.030411 279.922577,185.540314 280.667236,188.156158 
	C281.533783,191.200119 280.982605,194.690277 280.783203,197.970779 
	C280.718170,199.040787 279.362335,199.242966 278.362000,199.250259 
	C273.919586,199.282669 269.476837,199.264313 264.523743,199.264313 
	C265.050964,195.025360 268.563629,190.804977 262.101685,187.953659 
	C266.664612,185.959045 270.146332,186.969284 273.962616,186.662018 
z"/>
<path fill="#000000" opacity="1.000000" stroke="none" 
	d="
M143.751419,199.326324 
	C142.626694,199.327606 141.960220,199.328232 141.293732,199.329407 
	C132.456711,199.344894 131.379333,198.006805 132.808472,189.200287 
	C133.074203,187.562851 133.797531,186.779602 135.347443,186.769745 
	C140.312729,186.738174 145.278351,186.758011 151.718353,186.758011 
	C148.188950,190.728729 146.367188,194.283707 149.670288,197.939178 
	C147.872452,199.957962 145.920959,199.076492 143.751419,199.326324 
z"/>
<path fill="#000000" opacity="1.000000" stroke="none" 
	d="
M123.963196,240.896973 
	C121.193970,240.645264 119.156525,240.222214 120.350960,236.965866 
	C121.353165,234.233597 119.915596,231.413071 120.334969,228.472931 
	C124.270340,227.074921 128.262131,227.833832 132.188675,227.829895 
	C133.959824,227.828110 134.692337,229.055557 135.057465,230.706223 
	C136.800247,238.585083 134.912018,240.973892 126.852493,240.946198 
	C126.021599,240.943344 125.190750,240.928391 123.963196,240.896973 
z"/>
<path fill="#000000" opacity="1.000000" stroke="none" 
	d="
M280.565063,228.193237 
	C284.919617,227.690063 289.682953,226.273590 292.575653,228.497757 
	C295.698059,230.898560 291.944427,235.899536 294.287720,239.548950 
	C289.718292,241.662109 285.603424,240.872482 281.555237,240.623352 
	C280.057831,240.531189 279.051392,239.491852 279.041077,238.017319 
	C279.018372,234.776794 278.060822,231.397354 280.565063,228.193237 
z"/>
<path fill="#000000" opacity="1.000000" stroke="none" 
	d="
M210.951752,227.575195 
	C215.331131,231.855209 215.793747,236.769897 212.449738,239.919373 
	C209.073517,243.099182 203.926941,242.849548 201.025513,239.276825 
	C198.647644,236.348755 198.679916,233.018738 200.559525,230.034836 
	C202.941132,226.253998 206.608292,225.853928 210.951752,227.575195 
z"/>
<path fill="#000000" opacity="1.000000" stroke="none" 
	d="
M150.999725,44.628754 
	C156.492035,44.628120 161.487442,44.733551 166.475800,44.591274 
	C169.791275,44.496708 171.324081,45.646889 171.299118,49.173946 
	C171.191879,64.316856 171.193420,79.461189 171.278198,94.604309 
	C171.297394,98.033478 169.919205,99.328011 166.527649,99.318100 
	C140.400864,99.241737 114.273766,99.238998 88.146858,99.279213 
	C85.012085,99.284042 83.623589,98.080055 83.637688,94.867043 
	C83.704857,79.557304 83.760681,64.246193 83.608269,48.937687 
	C83.565804,44.672943 86.028236,44.602856 89.093216,44.608540 
	C109.562035,44.646496 130.030960,44.628998 150.999725,44.628754 
z"/>
<path fill="#000000" opacity="1.000000" stroke="none" 
	d="
M291.999939,99.284241 
	C277.172058,99.282700 262.842682,99.165298 248.517197,99.349159 
	C244.234741,99.404114 242.607285,98.039948 242.672485,93.616631 
	C242.886093,79.125183 242.862411,64.627876 242.715332,50.135006 
	C242.674622,46.121475 243.941437,44.541279 248.139679,44.564331 
	C273.795807,44.705200 299.453308,44.693741 325.109711,44.582577 
	C328.925842,44.566040 330.435699,45.726280 330.390228,49.715050 
	C330.221191,64.540787 330.226440,79.370712 330.390289,94.196602 
	C330.435181,98.257378 328.691223,99.360161 324.986969,99.317619 
	C314.159271,99.193268 303.329132,99.279846 291.999939,99.284241 
z"/>
</svg>